<?xml version="1.0" encoding="UTF-8"?>
<!-- Editorial barcode placeholder. Vertical black bars on white, varying
     widths and gaps — looks intentional, not decorative. Square 1024x1024. -->
<svg xmlns="http://www.w3.org/2000/svg" viewBox="0 0 1024 1024" preserveAspectRatio="xMidYMid slice">
  <rect width="1024" height="1024" fill="#f4f3ee"/>
  <g fill="#0a0a0a">
    <rect x="48"  y="0" width="14"  height="1024"/>
    <rect x="78"  y="0" width="6"   height="1024"/>
    <rect x="100" y="0" width="38"  height="1024"/>
    <rect x="158" y="0" width="10"  height="1024"/>
    <rect x="184" y="0" width="22"  height="1024"/>
    <rect x="222" y="0" width="6"   height="1024"/>
    <rect x="246" y="0" width="58"  height="1024"/>
    <rect x="320" y="0" width="12"  height="1024"/>
    <rect x="348" y="0" width="30"  height="1024"/>
    <rect x="394" y="0" width="8"   height="1024"/>
    <rect x="420" y="0" width="18"  height="1024"/>
    <rect x="454" y="0" width="78"  height="1024"/>
    <rect x="548" y="0" width="12"  height="1024"/>
    <rect x="576" y="0" width="44"  height="1024"/>
    <rect x="636" y="0" width="8"   height="1024"/>
    <rect x="660" y="0" width="20"  height="1024"/>
    <rect x="696" y="0" width="6"   height="1024"/>
    <rect x="716" y="0" width="34"  height="1024"/>
    <rect x="766" y="0" width="14"  height="1024"/>
    <rect x="796" y="0" width="62"  height="1024"/>
    <rect x="872" y="0" width="8"   height="1024"/>
    <rect x="896" y="0" width="24"  height="1024"/>
    <rect x="936" y="0" width="40"  height="1024"/>
  </g>
</svg>
