<svg xmlns="http://www.w3.org/2000/svg" width="160" height="160" viewBox="0 0 160 160"><circle cx="93.9" cy="135" r="1.1" fill="#fffdf6" opacity="0.13"/><circle cx="118.8" cy="36" r="0.6" fill="#fffdf6" opacity="0.09"/><circle cx="24.8" cy="116.2" r="0.5" fill="#fffdf6" opacity="0.07"/><circle cx="107.1" cy="91.9" r="0.7" fill="#fffdf6" opacity="0.11"/><circle cx="70.6" cy="7.7" r="0.5" fill="#fffdf6" opacity="0.07"/><circle cx="151.2" cy="85.7" r="0.5" fill="#2b2722" opacity="0.05"/><circle cx="7.1" cy="57.5" r="1" fill="#fffdf6" opacity="0.11"/><circle cx="88.6" cy="62.8" r="0.9" fill="#fffdf6" opacity="0.14"/><circle cx="63.5" cy="70.3" r="0.5" fill="#2b2722" opacity="0.03"/><circle cx="2" cy="37.6" r="1.2" fill="#fffdf6" opacity="0.07"/><circle cx="137.7" cy="114.4" r="1.1" fill="#fffdf6" opacity="0.14"/><circle cx="141.1" cy="77.8" r="0.6" fill="#2b2722" opacity="0.07"/><circle cx="142.7" cy="65" r="0.9" fill="#fffdf6" opacity="0.11"/><circle cx="82.7" cy="14" r="0.5" fill="#2b2722" opacity="0.05"/><circle cx="3.8" cy="123.9" r="0.4" fill="#fffdf6" opacity="0.14"/><circle cx="31.2" cy="65.6" r="0.6" fill="#fffdf6" opacity="0.11"/><circle cx="110" cy="91.9" r="1" fill="#2b2722" opacity="0.04"/><circle cx="9" cy="146" r="0.5" fill="#fffdf6" opacity="0.06"/><circle cx="62.5" cy="12" r="1.3" fill="#fffdf6" opacity="0.09"/><circle cx="79.9" cy="52.2" r="0.8" fill="#2b2722" opacity="0.07"/><circle cx="105.2" cy="92.7" r="0.8" fill="#2b2722" opacity="0.05"/><circle cx="87.1" cy="138" r="0.5" fill="#2b2722" opacity="0.07"/><circle cx="125" cy="9.6" r="1.3" fill="#fffdf6" opacity="0.12"/><circle cx="10.2" cy="121.5" r="0.5" fill="#fffdf6" opacity="0.13"/><circle cx="40.4" cy="32.7" r="0.8" fill="#2b2722" opacity="0.04"/><circle cx="146.5" cy="74.1" r="1.1" fill="#fffdf6" opacity="0.13"/><circle cx="131.4" cy="79.1" r="0.9" fill="#2b2722" opacity="0.05"/><circle cx="112.7" cy="92.3" r="1.2" fill="#2b2722" opacity="0.04"/><circle cx="5.5" cy="53.7" r="0.4" fill="#fffdf6" opacity="0.05"/><circle cx="103.8" cy="12.6" r="0.5" fill="#2b2722" opacity="0.03"/><circle cx="50.7" cy="110.8" r="0.7" fill="#fffdf6" opacity="0.1"/><circle cx="68.4" cy="55.5" r="1" fill="#2b2722" opacity="0.05"/><circle cx="16" cy="27.9" r="1" fill="#2b2722" opacity="0.05"/><circle cx="44.4" cy="18.9" r="1.1" fill="#fffdf6" opacity="0.08"/><circle cx="117.5" cy="50.1" r="0.9" fill="#fffdf6" opacity="0.09"/><circle cx="84.4" cy="144.6" r="0.8" fill="#fffdf6" opacity="0.08"/><circle cx="40.9" cy="66.1" r="0.8" fill="#2b2722" opacity="0.05"/><circle cx="74.1" cy="43.3" r="0.4" fill="#fffdf6" opacity="0.08"/><circle cx="99.3" cy="139.4" r="0.8" fill="#2b2722" opacity="0.07"/><circle cx="40.4" cy="0.5" r="0.5" fill="#fffdf6" opacity="0.12"/><circle cx="29.4" cy="139.2" r="0.5" fill="#fffdf6" opacity="0.09"/><circle cx="111.1" cy="80.9" r="0.6" fill="#fffdf6" opacity="0.12"/><circle cx="11.1" cy="146.2" r="1" fill="#2b2722" opacity="0.04"/><circle cx="134.5" cy="76" r="1.1" fill="#fffdf6" opacity="0.12"/><circle cx="68.2" cy="2.7" r="1.2" fill="#2b2722" opacity="0.06"/><circle cx="78.3" cy="74.9" r="1" fill="#fffdf6" opacity="0.07"/><circle cx="33.8" cy="86.5" r="0.7" fill="#fffdf6" opacity="0.08"/><circle cx="6.2" cy="13.7" r="0.5" fill="#2b2722" opacity="0.07"/><circle cx="61.7" cy="71.4" r="0.8" fill="#fffdf6" opacity="0.09"/><circle cx="61.1" cy="68" r="1.3" fill="#2b2722" opacity="0.06"/><circle cx="97.3" cy="142" r="1" fill="#fffdf6" opacity="0.12"/><circle cx="82.8" cy="69.9" r="0.9" fill="#fffdf6" opacity="0.09"/><circle cx="17.2" cy="123.5" r="1.2" fill="#fffdf6" opacity="0.05"/><circle cx="99.4" cy="20.2" r="1.3" fill="#fffdf6" opacity="0.13"/><circle cx="60.6" cy="62.6" r="0.8" fill="#2b2722" opacity="0.08"/><circle cx="61.1" cy="97.6" r="0.6" fill="#fffdf6" opacity="0.06"/><circle cx="8.2" cy="122.9" r="0.8" fill="#fffdf6" opacity="0.06"/><circle cx="10.2" cy="39.4" r="1.2" fill="#fffdf6" opacity="0.06"/><circle cx="153" cy="11.2" r="1.3" fill="#fffdf6" opacity="0.09"/><circle cx="75.2" cy="36.8" r="1.1" fill="#fffdf6" opacity="0.1"/><circle cx="62.4" cy="33.4" r="0.5" fill="#fffdf6" opacity="0.14"/><circle cx="18.7" cy="101.8" r="0.6" fill="#fffdf6" opacity="0.12"/><circle cx="12.9" cy="25.8" r="0.7" fill="#fffdf6" opacity="0.12"/><circle cx="139.9" cy="44.7" r="0.4" fill="#fffdf6" opacity="0.12"/><circle cx="34" cy="6.8" r="1.2" fill="#fffdf6" opacity="0.14"/><circle cx="37.5" cy="8.4" r="0.5" fill="#fffdf6" opacity="0.13"/><circle cx="136.8" cy="19.7" r="0.9" fill="#fffdf6" opacity="0.07"/><circle cx="53.3" cy="66.7" r="1.1" fill="#fffdf6" opacity="0.06"/><circle cx="12.5" cy="128.2" r="0.8" fill="#fffdf6" opacity="0.05"/><circle cx="96.8" cy="94.2" r="1.3" fill="#fffdf6" opacity="0.11"/><circle cx="40.5" cy="148.5" r="0.8" fill="#2b2722" opacity="0.04"/><circle cx="11.2" cy="101.5" r="0.6" fill="#2b2722" opacity="0.08"/><circle cx="42.6" cy="57.8" r="0.7" fill="#fffdf6" opacity="0.11"/><circle cx="3.4" cy="15.4" r="0.4" fill="#fffdf6" opacity="0.13"/><circle cx="141.5" cy="48.2" r="1.3" fill="#fffdf6" opacity="0.14"/><circle cx="72.9" cy="95" r="1" fill="#fffdf6" opacity="0.11"/><circle cx="155.7" cy="114" r="1.1" fill="#2b2722" opacity="0.07"/><circle cx="21.7" cy="26.4" r="0.9" fill="#fffdf6" opacity="0.05"/><circle cx="101.5" cy="135.2" r="0.6" fill="#2b2722" opacity="0.06"/><circle cx="18.8" cy="134.6" r="1" fill="#2b2722" opacity="0.07"/><circle cx="9.4" cy="108" r="0.7" fill="#2b2722" opacity="0.06"/><circle cx="5.9" cy="16.9" r="1" fill="#fffdf6" opacity="0.06"/><circle cx="116.7" cy="114.3" r="0.9" fill="#2b2722" opacity="0.06"/><circle cx="71.9" cy="78.2" r="0.5" fill="#fffdf6" opacity="0.09"/><circle cx="98.2" cy="155.3" r="0.5" fill="#fffdf6" opacity="0.06"/><circle cx="73" cy="38.5" r="0.4" fill="#2b2722" opacity="0.04"/><circle cx="102.7" cy="116.8" r="1" fill="#fffdf6" opacity="0.09"/><circle cx="61.3" cy="59.7" r="1" fill="#fffdf6" opacity="0.14"/><circle cx="144" cy="88.9" r="1" fill="#2b2722" opacity="0.04"/><circle cx="130.6" cy="14.4" r="1.2" fill="#fffdf6" opacity="0.13"/><circle cx="79.5" cy="117" r="0.8" fill="#fffdf6" opacity="0.1"/><circle cx="130.9" cy="123.2" r="1.2" fill="#fffdf6" opacity="0.11"/><circle cx="29.5" cy="51.2" r="1" fill="#2b2722" opacity="0.07"/><circle cx="72" cy="149.9" r="1.3" fill="#fffdf6" opacity="0.12"/><circle cx="117.7" cy="31.7" r="1" fill="#fffdf6" opacity="0.13"/><circle cx="114.4" cy="68.2" r="0.9" fill="#fffdf6" opacity="0.1"/><circle cx="136" cy="125.4" r="0.7" fill="#2b2722" opacity="0.06"/><circle cx="44.7" cy="1.8" r="0.6" fill="#fffdf6" opacity="0.1"/><circle cx="103.7" cy="40.3" r="0.5" fill="#fffdf6" opacity="0.09"/><circle cx="7" cy="26.7" r="0.9" fill="#fffdf6" opacity="0.11"/><circle cx="147.5" cy="67.8" r="0.5" fill="#fffdf6" opacity="0.08"/><circle cx="12" cy="151.5" r="1" fill="#fffdf6" opacity="0.08"/><circle cx="68.9" cy="46.1" r="1" fill="#2b2722" opacity="0.06"/><circle cx="87.9" cy="73.2" r="1" fill="#2b2722" opacity="0.07"/><circle cx="76.2" cy="81.7" r="1" fill="#2b2722" opacity="0.07"/><circle cx="64.1" cy="80.7" r="0.8" fill="#2b2722" opacity="0.06"/><circle cx="14.5" cy="85.8" r="0.5" fill="#fffdf6" opacity="0.09"/><circle cx="98.8" cy="33.6" r="0.6" fill="#fffdf6" opacity="0.08"/><circle cx="134.6" cy="129.4" r="0.6" fill="#fffdf6" opacity="0.09"/><circle cx="58.1" cy="55" r="1" fill="#fffdf6" opacity="0.06"/><circle cx="70.9" cy="43.4" r="0.8" fill="#2b2722" opacity="0.03"/><circle cx="114.5" cy="99.7" r="1.1" fill="#2b2722" opacity="0.05"/><circle cx="13.2" cy="64.9" r="1.1" fill="#fffdf6" opacity="0.1"/><circle cx="121" cy="33.6" r="1" fill="#fffdf6" opacity="0.07"/><circle cx="132.5" cy="79.6" r="1" fill="#fffdf6" opacity="0.09"/><circle cx="70.2" cy="143.8" r="1.1" fill="#fffdf6" opacity="0.14"/><circle cx="79.8" cy="87.1" r="1.1" fill="#fffdf6" opacity="0.12"/><circle cx="45.7" cy="60.7" r="1.2" fill="#fffdf6" opacity="0.13"/><circle cx="3.4" cy="43.1" r="1.1" fill="#2b2722" opacity="0.05"/><circle cx="145.4" cy="122.7" r="0.9" fill="#fffdf6" opacity="0.09"/><circle cx="3.2" cy="2.2" r="1.3" fill="#2b2722" opacity="0.04"/><circle cx="125.7" cy="144.1" r="1.3" fill="#fffdf6" opacity="0.09"/><circle cx="90.7" cy="24.9" r="0.8" fill="#2b2722" opacity="0.03"/><circle cx="31.5" cy="24.3" r="1" fill="#fffdf6" opacity="0.13"/><circle cx="97.9" cy="69.1" r="0.6" fill="#2b2722" opacity="0.04"/><circle cx="14.3" cy="92" r="1" fill="#2b2722" opacity="0.04"/><circle cx="5.3" cy="16" r="0.5" fill="#fffdf6" opacity="0.11"/><circle cx="37.2" cy="158.7" r="0.5" fill="#fffdf6" opacity="0.07"/><circle cx="67.1" cy="159.4" r="0.5" fill="#2b2722" opacity="0.07"/><circle cx="120.1" cy="47.2" r="0.9" fill="#fffdf6" opacity="0.07"/><circle cx="115.9" cy="47.9" r="0.6" fill="#fffdf6" opacity="0.13"/><circle cx="85" cy="60.9" r="1" fill="#fffdf6" opacity="0.08"/><circle cx="135.6" cy="131.4" r="1.3" fill="#fffdf6" opacity="0.11"/><circle cx="63" cy="147.2" r="1" fill="#2b2722" opacity="0.06"/><circle cx="31.5" cy="95.4" r="0.5" fill="#2b2722" opacity="0.05"/><circle cx="137.8" cy="7.9" r="0.8" fill="#2b2722" opacity="0.04"/><circle cx="85.4" cy="137.7" r="0.4" fill="#fffdf6" opacity="0.1"/><circle cx="102.7" cy="52.9" r="0.7" fill="#2b2722" opacity="0.03"/><circle cx="83.4" cy="13.4" r="1.3" fill="#fffdf6" opacity="0.08"/><circle cx="108.5" cy="160" r="0.9" fill="#fffdf6" opacity="0.08"/><circle cx="150.5" cy="104.6" r="1.3" fill="#fffdf6" opacity="0.05"/><circle cx="12.5" cy="138.1" r="1.2" fill="#2b2722" opacity="0.05"/><circle cx="144.4" cy="61.9" r="0.8" fill="#2b2722" opacity="0.03"/><circle cx="27.9" cy="151.8" r="1.2" fill="#fffdf6" opacity="0.08"/><circle cx="5.9" cy="4.7" r="1.2" fill="#fffdf6" opacity="0.06"/><circle cx="43.8" cy="13" r="1.1" fill="#fffdf6" opacity="0.06"/><circle cx="87.3" cy="95.7" r="0.4" fill="#fffdf6" opacity="0.1"/><circle cx="60.9" cy="128.5" r="0.5" fill="#fffdf6" opacity="0.09"/><circle cx="78.7" cy="0" r="0.5" fill="#fffdf6" opacity="0.08"/><circle cx="53.7" cy="67" r="1.3" fill="#2b2722" opacity="0.06"/><circle cx="105.6" cy="118.7" r="0.7" fill="#2b2722" opacity="0.04"/><circle cx="31.9" cy="85.3" r="1.3" fill="#fffdf6" opacity="0.08"/><circle cx="55.3" cy="28.2" r="0.6" fill="#fffdf6" opacity="0.11"/><circle cx="116.6" cy="56.4" r="1.3" fill="#2b2722" opacity="0.04"/><circle cx="122.2" cy="152.7" r="1.3" fill="#fffdf6" opacity="0.12"/><circle cx="52.2" cy="93.9" r="1.3" fill="#fffdf6" opacity="0.09"/><circle cx="116.7" cy="65.9" r="0.6" fill="#fffdf6" opacity="0.1"/><circle cx="93.9" cy="133.4" r="1" fill="#2b2722" opacity="0.08"/><circle cx="87.6" cy="148.5" r="1.2" fill="#fffdf6" opacity="0.14"/><circle cx="120" cy="20.9" r="0.6" fill="#fffdf6" opacity="0.11"/><circle cx="142.5" cy="102.7" r="0.8" fill="#fffdf6" opacity="0.12"/><circle cx="126.9" cy="0.3" r="0.5" fill="#fffdf6" opacity="0.11"/><circle cx="11" cy="17.1" r="0.9" fill="#2b2722" opacity="0.06"/><circle cx="124.7" cy="105.8" r="1.2" fill="#fffdf6" opacity="0.06"/><circle cx="90.9" cy="123.8" r="1.1" fill="#fffdf6" opacity="0.1"/><circle cx="111.5" cy="147.5" r="0.9" fill="#2b2722" opacity="0.06"/><circle cx="46.6" cy="143.8" r="1.2" fill="#2b2722" opacity="0.04"/><circle cx="140.3" cy="55.1" r="1" fill="#fffdf6" opacity="0.06"/><circle cx="88.8" cy="121.8" r="0.5" fill="#2b2722" opacity="0.05"/><circle cx="143.7" cy="159.8" r="0.9" fill="#fffdf6" opacity="0.08"/><circle cx="125.2" cy="64.7" r="0.5" fill="#fffdf6" opacity="0.09"/><circle cx="91.8" cy="139" r="0.7" fill="#fffdf6" opacity="0.06"/><circle cx="128" cy="61.8" r="0.8" fill="#fffdf6" opacity="0.11"/><circle cx="18.2" cy="37.7" r="0.7" fill="#fffdf6" opacity="0.12"/><circle cx="68.9" cy="104.7" r="0.5" fill="#fffdf6" opacity="0.13"/><circle cx="10.2" cy="40.8" r="1.3" fill="#fffdf6" opacity="0.13"/><circle cx="50.1" cy="107.4" r="1.2" fill="#2b2722" opacity="0.03"/><circle cx="146" cy="153.9" r="1.2" fill="#2b2722" opacity="0.07"/><circle cx="140.1" cy="89.2" r="1.2" fill="#2b2722" opacity="0.05"/><circle cx="114.5" cy="80.3" r="0.7" fill="#fffdf6" opacity="0.13"/><circle cx="26.2" cy="118.2" r="1.3" fill="#fffdf6" opacity="0.12"/><circle cx="19.4" cy="96.9" r="0.8" fill="#2b2722" opacity="0.08"/><circle cx="37.2" cy="54.4" r="1" fill="#fffdf6" opacity="0.07"/><circle cx="16" cy="72.2" r="1.2" fill="#2b2722" opacity="0.06"/><circle cx="113.5" cy="2.5" r="1" fill="#2b2722" opacity="0.07"/><circle cx="124.2" cy="101.7" r="1" fill="#fffdf6" opacity="0.06"/><circle cx="28.3" cy="76.9" r="0.9" fill="#2b2722" opacity="0.07"/><circle cx="57.2" cy="8" r="1.2" fill="#fffdf6" opacity="0.1"/><circle cx="97.1" cy="25" r="0.6" fill="#fffdf6" opacity="0.05"/><circle cx="140.4" cy="71.3" r="1.1" fill="#fffdf6" opacity="0.09"/><circle cx="140" cy="82.7" r="0.8" fill="#fffdf6" opacity="0.08"/><circle cx="84" cy="34.7" r="0.9" fill="#fffdf6" opacity="0.13"/><circle cx="43.1" cy="21.2" r="0.8" fill="#fffdf6" opacity="0.11"/><circle cx="144.6" cy="136.1" r="0.7" fill="#fffdf6" opacity="0.12"/><circle cx="100.4" cy="119.5" r="0.7" fill="#fffdf6" opacity="0.13"/><circle cx="30.2" cy="28.1" r="0.8" fill="#fffdf6" opacity="0.06"/><circle cx="54.5" cy="3.9" r="1" fill="#fffdf6" opacity="0.06"/><circle cx="61.9" cy="32.4" r="0.9" fill="#2b2722" opacity="0.07"/><circle cx="61.4" cy="26.9" r="0.7" fill="#fffdf6" opacity="0.08"/><circle cx="95.8" cy="64.7" r="0.9" fill="#fffdf6" opacity="0.08"/><circle cx="36.6" cy="94.1" r="0.5" fill="#fffdf6" opacity="0.14"/><circle cx="67.7" cy="90.9" r="1.3" fill="#fffdf6" opacity="0.09"/><circle cx="111" cy="46.9" r="1.2" fill="#fffdf6" opacity="0.09"/><circle cx="81.1" cy="8.2" r="0.9" fill="#2b2722" opacity="0.08"/><circle cx="82.3" cy="42.9" r="0.4" fill="#2b2722" opacity="0.04"/><circle cx="145.8" cy="134.6" r="1.2" fill="#fffdf6" opacity="0.08"/><circle cx="74.7" cy="125.7" r="0.4" fill="#fffdf6" opacity="0.1"/><circle cx="141.6" cy="79.1" r="1" fill="#fffdf6" opacity="0.07"/><circle cx="77.6" cy="59.7" r="1" fill="#fffdf6" opacity="0.08"/><circle cx="26.2" cy="19.1" r="1.2" fill="#2b2722" opacity="0.06"/><circle cx="22.5" cy="77.8" r="0.5" fill="#fffdf6" opacity="0.13"/><circle cx="100.3" cy="29" r="1.2" fill="#fffdf6" opacity="0.14"/><circle cx="28.6" cy="105.4" r="1.3" fill="#fffdf6" opacity="0.14"/><circle cx="78.2" cy="33.5" r="1.2" fill="#fffdf6" opacity="0.07"/><circle cx="108.5" cy="5" r="0.6" fill="#2b2722" opacity="0.06"/><circle cx="1.2" cy="71.8" r="0.7" fill="#fffdf6" opacity="0.12"/><circle cx="38.5" cy="23.4" r="0.4" fill="#2b2722" opacity="0.05"/><circle cx="18.5" cy="139.8" r="0.7" fill="#fffdf6" opacity="0.07"/><circle cx="47.7" cy="68.5" r="0.7" fill="#fffdf6" opacity="0.06"/><circle cx="107.8" cy="135.9" r="0.5" fill="#fffdf6" opacity="0.11"/><circle cx="66.3" cy="83.8" r="0.5" fill="#2b2722" opacity="0.04"/><circle cx="144.3" cy="130.3" r="0.7" fill="#fffdf6" opacity="0.12"/><circle cx="29.7" cy="75.7" r="0.5" fill="#2b2722" opacity="0.07"/><circle cx="141.9" cy="71.7" r="0.8" fill="#fffdf6" opacity="0.09"/><circle cx="141.6" cy="137.7" r="0.8" fill="#fffdf6" opacity="0.13"/><circle cx="26.9" cy="97.9" r="1" fill="#2b2722" opacity="0.08"/><circle cx="18.8" cy="4.9" r="1" fill="#2b2722" opacity="0.05"/><circle cx="68.4" cy="127.1" r="0.8" fill="#fffdf6" opacity="0.07"/><circle cx="38.6" cy="149.4" r="0.8" fill="#fffdf6" opacity="0.08"/><circle cx="88.2" cy="147.5" r="0.9" fill="#fffdf6" opacity="0.08"/><circle cx="110.2" cy="57.5" r="0.8" fill="#fffdf6" opacity="0.07"/><circle cx="90" cy="73.3" r="0.6" fill="#fffdf6" opacity="0.1"/><circle cx="97.7" cy="31.2" r="0.7" fill="#fffdf6" opacity="0.1"/><circle cx="51.1" cy="157.4" r="0.8" fill="#2b2722" opacity="0.06"/><circle cx="133.9" cy="46.7" r="1.1" fill="#fffdf6" opacity="0.12"/><circle cx="44.1" cy="62.9" r="1.2" fill="#fffdf6" opacity="0.06"/><circle cx="38.3" cy="98.7" r="0.7" fill="#fffdf6" opacity="0.14"/><circle cx="19.4" cy="73.4" r="1.3" fill="#fffdf6" opacity="0.06"/><circle cx="153.4" cy="44.6" r="0.7" fill="#fffdf6" opacity="0.11"/><circle cx="56.1" cy="20.3" r="1" fill="#fffdf6" opacity="0.07"/><circle cx="27.3" cy="128" r="0.9" fill="#2b2722" opacity="0.04"/><circle cx="37.3" cy="124.5" r="0.7" fill="#fffdf6" opacity="0.08"/><circle cx="113.8" cy="58.6" r="1.2" fill="#fffdf6" opacity="0.1"/><circle cx="145.9" cy="22.7" r="0.6" fill="#fffdf6" opacity="0.13"/><circle cx="112.9" cy="27.5" r="1.1" fill="#2b2722" opacity="0.04"/><circle cx="4.4" cy="80.4" r="1" fill="#2b2722" opacity="0.07"/><circle cx="17.2" cy="78.1" r="1.1" fill="#fffdf6" opacity="0.06"/><circle cx="65.7" cy="122.1" r="1.3" fill="#fffdf6" opacity="0.07"/><circle cx="45.4" cy="81.8" r="1.2" fill="#fffdf6" opacity="0.06"/><circle cx="112.8" cy="115.7" r="1.1" fill="#fffdf6" opacity="0.09"/><circle cx="117.4" cy="32.8" r="1.1" fill="#fffdf6" opacity="0.06"/><circle cx="158.4" cy="92.4" r="1" fill="#fffdf6" opacity="0.09"/><circle cx="1.3" cy="77" r="0.8" fill="#2b2722" opacity="0.08"/><circle cx="45.9" cy="67.1" r="0.8" fill="#fffdf6" opacity="0.08"/><circle cx="130.2" cy="97.8" r="1.2" fill="#fffdf6" opacity="0.1"/><circle cx="49.3" cy="33.6" r="0.6" fill="#fffdf6" opacity="0.07"/><circle cx="158.5" cy="155.1" r="1" fill="#fffdf6" opacity="0.1"/><circle cx="91.2" cy="94.1" r="1.2" fill="#fffdf6" opacity="0.07"/><circle cx="51.4" cy="114.9" r="0.9" fill="#fffdf6" opacity="0.06"/><circle cx="154.5" cy="13.6" r="0.5" fill="#fffdf6" opacity="0.08"/><circle cx="91.3" cy="70.8" r="0.8" fill="#fffdf6" opacity="0.09"/><circle cx="120.1" cy="83.8" r="0.7" fill="#fffdf6" opacity="0.11"/><circle cx="57" cy="35.9" r="1.1" fill="#fffdf6" opacity="0.06"/><circle cx="3.7" cy="157.7" r="1.2" fill="#fffdf6" opacity="0.11"/><circle cx="121.9" cy="133" r="0.8" fill="#2b2722" opacity="0.07"/><circle cx="102.7" cy="100" r="0.8" fill="#fffdf6" opacity="0.13"/><circle cx="130.4" cy="67.1" r="0.8" fill="#fffdf6" opacity="0.09"/><circle cx="33.9" cy="117.8" r="1" fill="#fffdf6" opacity="0.07"/><circle cx="35.4" cy="12.2" r="0.5" fill="#2b2722" opacity="0.06"/><circle cx="106.3" cy="159.3" r="1.2" fill="#fffdf6" opacity="0.1"/><circle cx="157.5" cy="139.6" r="0.6" fill="#fffdf6" opacity="0.1"/><circle cx="46.4" cy="114.2" r="0.6" fill="#fffdf6" opacity="0.08"/><circle cx="80.5" cy="50.8" r="0.8" fill="#fffdf6" opacity="0.05"/><circle cx="106.5" cy="152.9" r="0.7" fill="#fffdf6" opacity="0.11"/><circle cx="59.4" cy="160" r="1" fill="#fffdf6" opacity="0.07"/><circle cx="16.1" cy="140.9" r="0.5" fill="#fffdf6" opacity="0.14"/><circle cx="109.5" cy="15.7" r="1" fill="#2b2722" opacity="0.04"/><circle cx="45.6" cy="131.4" r="1.2" fill="#fffdf6" opacity="0.1"/><circle cx="17.5" cy="100.2" r="0.5" fill="#fffdf6" opacity="0.09"/><circle cx="112.9" cy="15.3" r="1.1" fill="#2b2722" opacity="0.08"/><circle cx="108.2" cy="59.5" r="0.6" fill="#2b2722" opacity="0.07"/><circle cx="129.8" cy="5.6" r="1" fill="#fffdf6" opacity="0.06"/><circle cx="96.1" cy="11.2" r="1.2" fill="#fffdf6" opacity="0.11"/><circle cx="103.6" cy="26.9" r="1" fill="#2b2722" opacity="0.05"/><circle cx="22.5" cy="88.7" r="0.7" fill="#2b2722" opacity="0.04"/><circle cx="111.9" cy="17.2" r="0.5" fill="#fffdf6" opacity="0.1"/><circle cx="46.1" cy="36.9" r="0.8" fill="#2b2722" opacity="0.05"/><circle cx="75.2" cy="88.9" r="1" fill="#fffdf6" opacity="0.14"/><circle cx="52.8" cy="85.7" r="1.3" fill="#fffdf6" opacity="0.06"/><circle cx="7.7" cy="131.2" r="0.9" fill="#2b2722" opacity="0.07"/><circle cx="37.2" cy="85.2" r="1" fill="#fffdf6" opacity="0.07"/><circle cx="150.6" cy="15.3" r="0.8" fill="#fffdf6" opacity="0.1"/><circle cx="134.1" cy="119.5" r="1.1" fill="#fffdf6" opacity="0.12"/><circle cx="121.8" cy="1.2" r="0.5" fill="#2b2722" opacity="0.03"/><circle cx="94" cy="28.4" r="0.9" fill="#fffdf6" opacity="0.12"/><circle cx="115" cy="153.4" r="0.5" fill="#2b2722" opacity="0.06"/><circle cx="76.5" cy="59.3" r="1.1" fill="#2b2722" opacity="0.05"/><circle cx="27.6" cy="144.6" r="1" fill="#fffdf6" opacity="0.08"/><circle cx="101.9" cy="61.4" r="1.1" fill="#2b2722" opacity="0.06"/><circle cx="138.6" cy="30.9" r="1.2" fill="#2b2722" opacity="0.07"/><circle cx="85.3" cy="55.3" r="0.7" fill="#fffdf6" opacity="0.05"/><circle cx="146.1" cy="26.2" r="1" fill="#fffdf6" opacity="0.07"/><circle cx="70" cy="84.4" r="0.8" fill="#fffdf6" opacity="0.1"/><circle cx="68.3" cy="120.6" r="0.6" fill="#fffdf6" opacity="0.05"/><circle cx="146.9" cy="70.2" r="0.5" fill="#fffdf6" opacity="0.06"/><circle cx="139.7" cy="88.5" r="1.1" fill="#fffdf6" opacity="0.08"/><circle cx="51.5" cy="105.2" r="0.9" fill="#fffdf6" opacity="0.08"/><circle cx="146.4" cy="125.2" r="0.9" fill="#fffdf6" opacity="0.1"/><circle cx="90.9" cy="98" r="0.7" fill="#2b2722" opacity="0.05"/><circle cx="53.6" cy="0.6" r="1.3" fill="#fffdf6" opacity="0.13"/><circle cx="95.8" cy="97.5" r="0.4" fill="#fffdf6" opacity="0.06"/><circle cx="34" cy="105.2" r="1.2" fill="#fffdf6" opacity="0.11"/><circle cx="31.1" cy="149.4" r="0.6" fill="#fffdf6" opacity="0.09"/><circle cx="150.5" cy="46.8" r="0.7" fill="#fffdf6" opacity="0.11"/><circle cx="14.4" cy="76.8" r="0.6" fill="#fffdf6" opacity="0.09"/><circle cx="111.1" cy="138.8" r="0.5" fill="#fffdf6" opacity="0.11"/><circle cx="24.4" cy="83.3" r="0.9" fill="#fffdf6" opacity="0.1"/><circle cx="159.2" cy="109.9" r="0.5" fill="#fffdf6" opacity="0.12"/><circle cx="80.8" cy="88.5" r="0.5" fill="#2b2722" opacity="0.08"/><circle cx="72.4" cy="62.4" r="0.5" fill="#fffdf6" opacity="0.07"/></svg>