<svg xmlns="http://www.w3.org/2000/svg" width="600" height="480" viewBox="0 0 600 480" preserveAspectRatio="xMidYMid slice"><rect width="600" height="480" fill="#0a0a0f"/><circle cx="11" cy="11" r="0.8" fill="#28F100" opacity="0.4"/><circle cx="11" cy="33" r="0.9" fill="#fff" opacity="0.1"/><circle cx="11" cy="55" r="0.9" fill="#fff" opacity="0.1"/><circle cx="11" cy="76" r="1" fill="#fff" opacity="0.1"/><circle cx="11" cy="98" r="1" fill="#fff" opacity="0.1"/><circle cx="11" cy="120" r="1.1" fill="#fff" opacity="0.1"/><circle cx="11" cy="142" r="1.1" fill="#fff" opacity="0.1"/><circle cx="11" cy="164" r="1.2" fill="#fff" opacity="0.1"/><circle cx="11" cy="185" r="1.2" fill="#fff" opacity="0.1"/><circle cx="11" cy="207" r="1.3" fill="#fff" opacity="0.1"/><circle cx="11" cy="229" r="1.3" fill="#fff" opacity="0.1"/><circle cx="11" cy="251" r="1.4" fill="#fff" opacity="0.1"/><circle cx="11" cy="273" r="1.5" fill="#fff" opacity="0.1"/><circle cx="11" cy="295" r="1.5" fill="#fff" opacity="0.1"/><circle cx="11" cy="316" r="1.6" fill="#fff" opacity="0.1"/><circle cx="11" cy="338" r="1.6" fill="#fff" opacity="0.1"/><circle cx="11" cy="360" r="1.7" fill="#fff" opacity="0.1"/><circle cx="11" cy="382" r="1.7" fill="#fff" opacity="0.1"/><circle cx="11" cy="404" r="1.8" fill="#fff" opacity="0.1"/><circle cx="11" cy="425" r="1.8" fill="#fff" opacity="0.1"/><circle cx="11" cy="447" r="1.9" fill="#fff" opacity="0.1"/><circle cx="11" cy="469" r="1.9" fill="#fff" opacity="0.1"/><circle cx="33" cy="11" r="0.8" fill="#fff" opacity="0.1"/><circle cx="33" cy="33" r="0.9" fill="#fff" opacity="0.1"/><circle cx="33" cy="55" r="1" fill="#fff" opacity="0.1"/><circle cx="33" cy="76" r="1" fill="#fff" opacity="0.1"/><circle cx="33" cy="98" r="1.1" fill="#fff" opacity="0.1"/><circle cx="33" cy="120" r="1.1" fill="#fff" opacity="0.1"/><circle cx="33" cy="142" r="1.2" fill="#fff" opacity="0.1"/><circle cx="33" cy="164" r="1.2" fill="#fff" opacity="0.1"/><circle cx="33" cy="185" r="1.3" fill="#fff" opacity="0.1"/><circle cx="33" cy="207" r="1.3" fill="#fff" opacity="0.1"/><circle cx="33" cy="229" r="1.4" fill="#fff" opacity="0.1"/><circle cx="33" cy="251" r="1.4" fill="#fff" opacity="0.1"/><circle cx="33" cy="273" r="1.5" fill="#fff" opacity="0.1"/><circle cx="33" cy="295" r="1.6" fill="#fff" opacity="0.1"/><circle cx="33" cy="316" r="1.6" fill="#fff" opacity="0.1"/><circle cx="33" cy="338" r="1.7" fill="#fff" opacity="0.1"/><circle cx="33" cy="360" r="1.7" fill="#fff" opacity="0.1"/><circle cx="33" cy="382" r="1.8" fill="#fff" opacity="0.1"/><circle cx="33" cy="404" r="1.8" fill="#fff" opacity="0.1"/><circle cx="33" cy="425" r="1.9" fill="#fff" opacity="0.1"/><circle cx="33" cy="447" r="1.9" fill="#fff" opacity="0.1"/><circle cx="33" cy="469" r="2" fill="#fff" opacity="0.1"/><circle cx="56" cy="11" r="0.9" fill="#fff" opacity="0.1"/><circle cx="56" cy="33" r="0.9" fill="#fff" opacity="0.1"/><circle cx="56" cy="55" r="1" fill="#fff" opacity="0.1"/><circle cx="56" cy="76" r="1.1" fill="#fff" opacity="0.1"/><circle cx="56" cy="98" r="1.1" fill="#fff" opacity="0.1"/><circle cx="56" cy="120" r="1.2" fill="#fff" opacity="0.1"/><circle cx="56" cy="142" r="1.2" fill="#fff" opacity="0.1"/><circle cx="56" cy="164" r="1.3" fill="#fff" opacity="0.1"/><circle cx="56" cy="185" r="1.3" fill="#fff" opacity="0.1"/><circle cx="56" cy="207" r="1.4" fill="#28F100" opacity="0.4"/><circle cx="56" cy="229" r="1.4" fill="#fff" opacity="0.1"/><circle cx="56" cy="251" r="1.5" fill="#fff" opacity="0.1"/><circle cx="56" cy="273" r="1.5" fill="#fff" opacity="0.1"/><circle cx="56" cy="295" r="1.6" fill="#fff" opacity="0.1"/><circle cx="56" cy="316" r="1.7" fill="#fff" opacity="0.1"/><circle cx="56" cy="338" r="1.7" fill="#fff" opacity="0.1"/><circle cx="56" cy="360" r="1.8" fill="#fff" opacity="0.1"/><circle cx="56" cy="382" r="1.8" fill="#fff" opacity="0.1"/><circle cx="56" cy="404" r="1.9" fill="#fff" opacity="0.1"/><circle cx="56" cy="425" r="1.9" fill="#fff" opacity="0.1"/><circle cx="56" cy="447" r="2" fill="#fff" opacity="0.1"/><circle cx="56" cy="469" r="2" fill="#fff" opacity="0.1"/><circle cx="78" cy="11" r="0.9" fill="#fff" opacity="0.1"/><circle cx="78" cy="33" r="1" fill="#fff" opacity="0.1"/><circle cx="78" cy="55" r="1" fill="#fff" opacity="0.1"/><circle cx="78" cy="76" r="1.1" fill="#fff" opacity="0.1"/><circle cx="78" cy="98" r="1.2" fill="#fff" opacity="0.1"/><circle cx="78" cy="120" r="1.2" fill="#fff" opacity="0.1"/><circle cx="78" cy="142" r="1.3" fill="#fff" opacity="0.1"/><circle cx="78" cy="164" r="1.3" fill="#fff" opacity="0.1"/><circle cx="78" cy="185" r="1.4" fill="#fff" opacity="0.1"/><circle cx="78" cy="207" r="1.4" fill="#fff" opacity="0.1"/><circle cx="78" cy="229" r="1.5" fill="#fff" opacity="0.1"/><circle cx="78" cy="251" r="1.5" fill="#fff" opacity="0.1"/><circle cx="78" cy="273" r="1.6" fill="#fff" opacity="0.1"/><circle cx="78" cy="295" r="1.6" fill="#fff" opacity="0.1"/><circle cx="78" cy="316" r="1.7" fill="#fff" opacity="0.1"/><circle cx="78" cy="338" r="1.8" fill="#fff" opacity="0.1"/><circle cx="78" cy="360" r="1.8" fill="#fff" opacity="0.1"/><circle cx="78" cy="382" r="1.9" fill="#fff" opacity="0.1"/><circle cx="78" cy="404" r="1.9" fill="#fff" opacity="0.1"/><circle cx="78" cy="425" r="2" fill="#fff" opacity="0.1"/><circle cx="78" cy="447" r="2" fill="#fff" opacity="0.1"/><circle cx="78" cy="469" r="2.1" fill="#fff" opacity="0.1"/><circle cx="100" cy="11" r="1" fill="#fff" opacity="0.1"/><circle cx="100" cy="33" r="1" fill="#fff" opacity="0.1"/><circle cx="100" cy="55" r="1.1" fill="#fff" opacity="0.1"/><circle cx="100" cy="76" r="1.1" fill="#fff" opacity="0.1"/><circle cx="100" cy="98" r="1.2" fill="#fff" opacity="0.1"/><circle cx="100" cy="120" r="1.3" fill="#fff" opacity="0.1"/><circle cx="100" cy="142" r="1.3" fill="#fff" opacity="0.1"/><circle cx="100" cy="164" r="1.4" fill="#fff" opacity="0.1"/><circle cx="100" cy="185" r="1.4" fill="#fff" opacity="0.1"/><circle cx="100" cy="207" r="1.5" fill="#fff" opacity="0.1"/><circle cx="100" cy="229" r="1.5" fill="#fff" opacity="0.1"/><circle cx="100" cy="251" r="1.6" fill="#fff" opacity="0.1"/><circle cx="100" cy="273" r="1.6" fill="#fff" opacity="0.1"/><circle cx="100" cy="295" r="1.7" fill="#fff" opacity="0.1"/><circle cx="100" cy="316" r="1.7" fill="#fff" opacity="0.1"/><circle cx="100" cy="338" r="1.8" fill="#fff" opacity="0.1"/><circle cx="100" cy="360" r="1.9" fill="#fff" opacity="0.1"/><circle cx="100" cy="382" r="1.9" fill="#fff" opacity="0.1"/><circle cx="100" cy="404" r="2" fill="#28F100" opacity="0.4"/><circle cx="100" cy="425" r="2" fill="#fff" opacity="0.1"/><circle cx="100" cy="447" r="2.1" fill="#fff" opacity="0.1"/><circle cx="100" cy="469" r="2.1" fill="#fff" opacity="0.1"/><circle cx="122" cy="11" r="1" fill="#fff" opacity="0.1"/><circle cx="122" cy="33" r="1.1" fill="#fff" opacity="0.1"/><circle cx="122" cy="55" r="1.1" fill="#28F100" opacity="0.4"/><circle cx="122" cy="76" r="1.2" fill="#fff" opacity="0.1"/><circle cx="122" cy="98" r="1.2" fill="#fff" opacity="0.1"/><circle cx="122" cy="120" r="1.3" fill="#fff" opacity="0.1"/><circle cx="122" cy="142" r="1.3" fill="#fff" opacity="0.1"/><circle cx="122" cy="164" r="1.4" fill="#fff" opacity="0.1"/><circle cx="122" cy="185" r="1.5" fill="#fff" opacity="0.1"/><circle cx="122" cy="207" r="1.5" fill="#fff" opacity="0.1"/><circle cx="122" cy="229" r="1.6" fill="#fff" opacity="0.1"/><circle cx="122" cy="251" r="1.6" fill="#fff" opacity="0.1"/><circle cx="122" cy="273" r="1.7" fill="#fff" opacity="0.1"/><circle cx="122" cy="295" r="1.7" fill="#fff" opacity="0.1"/><circle cx="122" cy="316" r="1.8" fill="#fff" opacity="0.1"/><circle cx="122" cy="338" r="1.8" fill="#fff" opacity="0.1"/><circle cx="122" cy="360" r="1.9" fill="#fff" opacity="0.1"/><circle cx="122" cy="382" r="1.9" fill="#fff" opacity="0.1"/><circle cx="122" cy="404" r="2" fill="#fff" opacity="0.1"/><circle cx="122" cy="425" r="2.1" fill="#fff" opacity="0.1"/><circle cx="122" cy="447" r="2.1" fill="#fff" opacity="0.1"/><circle cx="122" cy="469" r="2.2" fill="#fff" opacity="0.1"/><circle cx="144" cy="11" r="1.1" fill="#fff" opacity="0.1"/><circle cx="144" cy="33" r="1.1" fill="#fff" opacity="0.1"/><circle cx="144" cy="55" r="1.2" fill="#fff" opacity="0.1"/><circle cx="144" cy="76" r="1.2" fill="#fff" opacity="0.1"/><circle cx="144" cy="98" r="1.3" fill="#fff" opacity="0.1"/><circle cx="144" cy="120" r="1.3" fill="#fff" opacity="0.1"/><circle cx="144" cy="142" r="1.4" fill="#fff" opacity="0.1"/><circle cx="144" cy="164" r="1.4" fill="#fff" opacity="0.1"/><circle cx="144" cy="185" r="1.5" fill="#fff" opacity="0.1"/><circle cx="144" cy="207" r="1.6" fill="#fff" opacity="0.1"/><circle cx="144" cy="229" r="1.6" fill="#fff" opacity="0.1"/><circle cx="144" cy="251" r="1.7" fill="#fff" opacity="0.1"/><circle cx="144" cy="273" r="1.7" fill="#fff" opacity="0.1"/><circle cx="144" cy="295" r="1.8" fill="#fff" opacity="0.1"/><circle cx="144" cy="316" r="1.8" fill="#fff" opacity="0.1"/><circle cx="144" cy="338" r="1.9" fill="#fff" opacity="0.1"/><circle cx="144" cy="360" r="1.9" fill="#fff" opacity="0.1"/><circle cx="144" cy="382" r="2" fill="#fff" opacity="0.1"/><circle cx="144" cy="404" r="2" fill="#fff" opacity="0.1"/><circle cx="144" cy="425" r="2.1" fill="#fff" opacity="0.1"/><circle cx="144" cy="447" r="2.2" fill="#fff" opacity="0.1"/><circle cx="144" cy="469" r="2.2" fill="#fff" opacity="0.1"/><circle cx="167" cy="11" r="1.1" fill="#fff" opacity="0.1"/><circle cx="167" cy="33" r="1.2" fill="#fff" opacity="0.1"/><circle cx="167" cy="55" r="1.2" fill="#fff" opacity="0.1"/><circle cx="167" cy="76" r="1.3" fill="#fff" opacity="0.1"/><circle cx="167" cy="98" r="1.3" fill="#fff" opacity="0.1"/><circle cx="167" cy="120" r="1.4" fill="#fff" opacity="0.1"/><circle cx="167" cy="142" r="1.4" fill="#fff" opacity="0.1"/><circle cx="167" cy="164" r="1.5" fill="#fff" opacity="0.1"/><circle cx="167" cy="185" r="1.5" fill="#fff" opacity="0.1"/><circle cx="167" cy="207" r="1.6" fill="#fff" opacity="0.1"/><circle cx="167" cy="229" r="1.7" fill="#fff" opacity="0.1"/><circle cx="167" cy="251" r="1.7" fill="#28F100" opacity="0.4"/><circle cx="167" cy="273" r="1.8" fill="#fff" opacity="0.1"/><circle cx="167" cy="295" r="1.8" fill="#fff" opacity="0.1"/><circle cx="167" cy="316" r="1.9" fill="#fff" opacity="0.1"/><circle cx="167" cy="338" r="1.9" fill="#fff" opacity="0.1"/><circle cx="167" cy="360" r="2" fill="#fff" opacity="0.1"/><circle cx="167" cy="382" r="2" fill="#fff" opacity="0.1"/><circle cx="167" cy="404" r="2.1" fill="#fff" opacity="0.1"/><circle cx="167" cy="425" r="2.1" fill="#fff" opacity="0.1"/><circle cx="167" cy="447" r="2.2" fill="#fff" opacity="0.1"/><circle cx="167" cy="469" r="2.3" fill="#fff" opacity="0.1"/><circle cx="189" cy="11" r="1.2" fill="#fff" opacity="0.1"/><circle cx="189" cy="33" r="1.2" fill="#fff" opacity="0.1"/><circle cx="189" cy="55" r="1.3" fill="#fff" opacity="0.1"/><circle cx="189" cy="76" r="1.3" fill="#fff" opacity="0.1"/><circle cx="189" cy="98" r="1.4" fill="#fff" opacity="0.1"/><circle cx="189" cy="120" r="1.4" fill="#fff" opacity="0.1"/><circle cx="189" cy="142" r="1.5" fill="#fff" opacity="0.1"/><circle cx="189" cy="164" r="1.5" fill="#fff" opacity="0.1"/><circle cx="189" cy="185" r="1.6" fill="#fff" opacity="0.1"/><circle cx="189" cy="207" r="1.6" fill="#fff" opacity="0.1"/><circle cx="189" cy="229" r="1.7" fill="#fff" opacity="0.1"/><circle cx="189" cy="251" r="1.8" fill="#fff" opacity="0.1"/><circle cx="189" cy="273" r="1.8" fill="#fff" opacity="0.1"/><circle cx="189" cy="295" r="1.9" fill="#fff" opacity="0.1"/><circle cx="189" cy="316" r="1.9" fill="#fff" opacity="0.1"/><circle cx="189" cy="338" r="2" fill="#fff" opacity="0.1"/><circle cx="189" cy="360" r="2" fill="#fff" opacity="0.1"/><circle cx="189" cy="382" r="2.1" fill="#fff" opacity="0.1"/><circle cx="189" cy="404" r="2.1" fill="#fff" opacity="0.1"/><circle cx="189" cy="425" r="2.2" fill="#fff" opacity="0.1"/><circle cx="189" cy="447" r="2.2" fill="#fff" opacity="0.1"/><circle cx="189" cy="469" r="2.3" fill="#fff" opacity="0.2"/><circle cx="211" cy="11" r="1.2" fill="#fff" opacity="0.1"/><circle cx="211" cy="33" r="1.3" fill="#fff" opacity="0.1"/><circle cx="211" cy="55" r="1.3" fill="#fff" opacity="0.1"/><circle cx="211" cy="76" r="1.4" fill="#fff" opacity="0.1"/><circle cx="211" cy="98" r="1.4" fill="#fff" opacity="0.1"/><circle cx="211" cy="120" r="1.5" fill="#fff" opacity="0.1"/><circle cx="211" cy="142" r="1.5" fill="#fff" opacity="0.1"/><circle cx="211" cy="164" r="1.6" fill="#fff" opacity="0.1"/><circle cx="211" cy="185" r="1.6" fill="#fff" opacity="0.1"/><circle cx="211" cy="207" r="1.7" fill="#fff" opacity="0.1"/><circle cx="211" cy="229" r="1.7" fill="#fff" opacity="0.1"/><circle cx="211" cy="251" r="1.8" fill="#fff" opacity="0.1"/><circle cx="211" cy="273" r="1.9" fill="#fff" opacity="0.1"/><circle cx="211" cy="295" r="1.9" fill="#fff" opacity="0.1"/><circle cx="211" cy="316" r="2" fill="#fff" opacity="0.1"/><circle cx="211" cy="338" r="2" fill="#fff" opacity="0.1"/><circle cx="211" cy="360" r="2.1" fill="#fff" opacity="0.1"/><circle cx="211" cy="382" r="2.1" fill="#fff" opacity="0.1"/><circle cx="211" cy="404" r="2.2" fill="#fff" opacity="0.1"/><circle cx="211" cy="425" r="2.2" fill="#fff" opacity="0.1"/><circle cx="211" cy="447" r="2.3" fill="#28F100" opacity="0.4"/><circle cx="211" cy="469" r="2.3" fill="#fff" opacity="0.2"/><circle cx="233" cy="11" r="1.2" fill="#fff" opacity="0.1"/><circle cx="233" cy="33" r="1.3" fill="#fff" opacity="0.1"/><circle cx="233" cy="55" r="1.4" fill="#fff" opacity="0.1"/><circle cx="233" cy="76" r="1.4" fill="#fff" opacity="0.1"/><circle cx="233" cy="98" r="1.5" fill="#28F100" opacity="0.4"/><circle cx="233" cy="120" r="1.5" fill="#fff" opacity="0.1"/><circle cx="233" cy="142" r="1.6" fill="#fff" opacity="0.1"/><circle cx="233" cy="164" r="1.6" fill="#fff" opacity="0.1"/><circle cx="233" cy="185" r="1.7" fill="#fff" opacity="0.1"/><circle cx="233" cy="207" r="1.7" fill="#fff" opacity="0.1"/><circle cx="233" cy="229" r="1.8" fill="#fff" opacity="0.1"/><circle cx="233" cy="251" r="1.8" fill="#fff" opacity="0.1"/><circle cx="233" cy="273" r="1.9" fill="#fff" opacity="0.1"/><circle cx="233" cy="295" r="2" fill="#fff" opacity="0.1"/><circle cx="233" cy="316" r="2" fill="#fff" opacity="0.1"/><circle cx="233" cy="338" r="2.1" fill="#fff" opacity="0.1"/><circle cx="233" cy="360" r="2.1" fill="#fff" opacity="0.1"/><circle cx="233" cy="382" r="2.2" fill="#fff" opacity="0.1"/><circle cx="233" cy="404" r="2.2" fill="#fff" opacity="0.1"/><circle cx="233" cy="425" r="2.3" fill="#fff" opacity="0.1"/><circle cx="233" cy="447" r="2.3" fill="#fff" opacity="0.2"/><circle cx="233" cy="469" r="2.4" fill="#fff" opacity="0.2"/><circle cx="256" cy="11" r="1.3" fill="#fff" opacity="0.1"/><circle cx="256" cy="33" r="1.3" fill="#fff" opacity="0.1"/><circle cx="256" cy="55" r="1.4" fill="#fff" opacity="0.1"/><circle cx="256" cy="76" r="1.5" fill="#fff" opacity="0.1"/><circle cx="256" cy="98" r="1.5" fill="#fff" opacity="0.1"/><circle cx="256" cy="120" r="1.6" fill="#fff" opacity="0.1"/><circle cx="256" cy="142" r="1.6" fill="#fff" opacity="0.1"/><circle cx="256" cy="164" r="1.7" fill="#fff" opacity="0.1"/><circle cx="256" cy="185" r="1.7" fill="#fff" opacity="0.1"/><circle cx="256" cy="207" r="1.8" fill="#fff" opacity="0.1"/><circle cx="256" cy="229" r="1.8" fill="#fff" opacity="0.1"/><circle cx="256" cy="251" r="1.9" fill="#fff" opacity="0.1"/><circle cx="256" cy="273" r="1.9" fill="#fff" opacity="0.1"/><circle cx="256" cy="295" r="2" fill="#fff" opacity="0.1"/><circle cx="256" cy="316" r="2.1" fill="#fff" opacity="0.1"/><circle cx="256" cy="338" r="2.1" fill="#fff" opacity="0.1"/><circle cx="256" cy="360" r="2.2" fill="#fff" opacity="0.1"/><circle cx="256" cy="382" r="2.2" fill="#fff" opacity="0.1"/><circle cx="256" cy="404" r="2.3" fill="#fff" opacity="0.1"/><circle cx="256" cy="425" r="2.3" fill="#fff" opacity="0.2"/><circle cx="256" cy="447" r="2.4" fill="#fff" opacity="0.2"/><circle cx="256" cy="469" r="2.4" fill="#fff" opacity="0.2"/><circle cx="278" cy="11" r="1.3" fill="#fff" opacity="0.1"/><circle cx="278" cy="33" r="1.4" fill="#fff" opacity="0.1"/><circle cx="278" cy="55" r="1.4" fill="#fff" opacity="0.1"/><circle cx="278" cy="76" r="1.5" fill="#fff" opacity="0.1"/><circle cx="278" cy="98" r="1.6" fill="#fff" opacity="0.1"/><circle cx="278" cy="120" r="1.6" fill="#fff" opacity="0.1"/><circle cx="278" cy="142" r="1.7" fill="#fff" opacity="0.1"/><circle cx="278" cy="164" r="1.7" fill="#fff" opacity="0.1"/><circle cx="278" cy="185" r="1.8" fill="#fff" opacity="0.1"/><circle cx="278" cy="207" r="1.8" fill="#fff" opacity="0.1"/><circle cx="278" cy="229" r="1.9" fill="#fff" opacity="0.1"/><circle cx="278" cy="251" r="1.9" fill="#fff" opacity="0.1"/><circle cx="278" cy="273" r="2" fill="#fff" opacity="0.1"/><circle cx="278" cy="295" r="2" fill="#28F100" opacity="0.4"/><circle cx="278" cy="316" r="2.1" fill="#fff" opacity="0.1"/><circle cx="278" cy="338" r="2.2" fill="#fff" opacity="0.1"/><circle cx="278" cy="360" r="2.2" fill="#fff" opacity="0.1"/><circle cx="278" cy="382" r="2.3" fill="#fff" opacity="0.1"/><circle cx="278" cy="404" r="2.3" fill="#fff" opacity="0.2"/><circle cx="278" cy="425" r="2.4" fill="#fff" opacity="0.2"/><circle cx="278" cy="447" r="2.4" fill="#fff" opacity="0.2"/><circle cx="278" cy="469" r="2.5" fill="#fff" opacity="0.2"/><circle cx="300" cy="11" r="1.4" fill="#fff" opacity="0.1"/><circle cx="300" cy="33" r="1.4" fill="#fff" opacity="0.1"/><circle cx="300" cy="55" r="1.5" fill="#fff" opacity="0.1"/><circle cx="300" cy="76" r="1.5" fill="#fff" opacity="0.1"/><circle cx="300" cy="98" r="1.6" fill="#fff" opacity="0.1"/><circle cx="300" cy="120" r="1.7" fill="#fff" opacity="0.1"/><circle cx="300" cy="142" r="1.7" fill="#fff" opacity="0.1"/><circle cx="300" cy="164" r="1.8" fill="#fff" opacity="0.1"/><circle cx="300" cy="185" r="1.8" fill="#fff" opacity="0.1"/><circle cx="300" cy="207" r="1.9" fill="#fff" opacity="0.1"/><circle cx="300" cy="229" r="1.9" fill="#fff" opacity="0.1"/><circle cx="300" cy="251" r="2" fill="#fff" opacity="0.1"/><circle cx="300" cy="273" r="2" fill="#fff" opacity="0.1"/><circle cx="300" cy="295" r="2.1" fill="#fff" opacity="0.1"/><circle cx="300" cy="316" r="2.1" fill="#fff" opacity="0.1"/><circle cx="300" cy="338" r="2.2" fill="#fff" opacity="0.1"/><circle cx="300" cy="360" r="2.3" fill="#fff" opacity="0.1"/><circle cx="300" cy="382" r="2.3" fill="#fff" opacity="0.2"/><circle cx="300" cy="404" r="2.4" fill="#fff" opacity="0.2"/><circle cx="300" cy="425" r="2.4" fill="#fff" opacity="0.2"/><circle cx="300" cy="447" r="2.5" fill="#fff" opacity="0.2"/><circle cx="300" cy="469" r="2.5" fill="#fff" opacity="0.2"/><circle cx="322" cy="11" r="1.4" fill="#fff" opacity="0.1"/><circle cx="322" cy="33" r="1.5" fill="#fff" opacity="0.1"/><circle cx="322" cy="55" r="1.5" fill="#fff" opacity="0.1"/><circle cx="322" cy="76" r="1.6" fill="#fff" opacity="0.1"/><circle cx="322" cy="98" r="1.6" fill="#fff" opacity="0.1"/><circle cx="322" cy="120" r="1.7" fill="#fff" opacity="0.1"/><circle cx="322" cy="142" r="1.7" fill="#fff" opacity="0.1"/><circle cx="322" cy="164" r="1.8" fill="#fff" opacity="0.1"/><circle cx="322" cy="185" r="1.9" fill="#fff" opacity="0.1"/><circle cx="322" cy="207" r="1.9" fill="#fff" opacity="0.1"/><circle cx="322" cy="229" r="2" fill="#fff" opacity="0.1"/><circle cx="322" cy="251" r="2" fill="#fff" opacity="0.1"/><circle cx="322" cy="273" r="2.1" fill="#fff" opacity="0.1"/><circle cx="322" cy="295" r="2.1" fill="#fff" opacity="0.1"/><circle cx="322" cy="316" r="2.2" fill="#fff" opacity="0.1"/><circle cx="322" cy="338" r="2.2" fill="#fff" opacity="0.1"/><circle cx="322" cy="360" r="2.3" fill="#fff" opacity="0.1"/><circle cx="322" cy="382" r="2.3" fill="#fff" opacity="0.2"/><circle cx="322" cy="404" r="2.4" fill="#fff" opacity="0.2"/><circle cx="322" cy="425" r="2.5" fill="#fff" opacity="0.2"/><circle cx="322" cy="447" r="2.5" fill="#fff" opacity="0.2"/><circle cx="322" cy="469" r="2.6" fill="#fff" opacity="0.2"/><circle cx="344" cy="11" r="1.5" fill="#fff" opacity="0.1"/><circle cx="344" cy="33" r="1.5" fill="#fff" opacity="0.1"/><circle cx="344" cy="55" r="1.6" fill="#fff" opacity="0.1"/><circle cx="344" cy="76" r="1.6" fill="#fff" opacity="0.1"/><circle cx="344" cy="98" r="1.7" fill="#fff" opacity="0.1"/><circle cx="344" cy="120" r="1.7" fill="#fff" opacity="0.1"/><circle cx="344" cy="142" r="1.8" fill="#28F100" opacity="0.4"/><circle cx="344" cy="164" r="1.8" fill="#fff" opacity="0.1"/><circle cx="344" cy="185" r="1.9" fill="#fff" opacity="0.1"/><circle cx="344" cy="207" r="2" fill="#fff" opacity="0.1"/><circle cx="344" cy="229" r="2" fill="#fff" opacity="0.1"/><circle cx="344" cy="251" r="2.1" fill="#fff" opacity="0.1"/><circle cx="344" cy="273" r="2.1" fill="#fff" opacity="0.1"/><circle cx="344" cy="295" r="2.2" fill="#fff" opacity="0.1"/><circle cx="344" cy="316" r="2.2" fill="#fff" opacity="0.1"/><circle cx="344" cy="338" r="2.3" fill="#fff" opacity="0.1"/><circle cx="344" cy="360" r="2.3" fill="#fff" opacity="0.2"/><circle cx="344" cy="382" r="2.4" fill="#fff" opacity="0.2"/><circle cx="344" cy="404" r="2.4" fill="#fff" opacity="0.2"/><circle cx="344" cy="425" r="2.5" fill="#fff" opacity="0.2"/><circle cx="344" cy="447" r="2.6" fill="#fff" opacity="0.2"/><circle cx="344" cy="469" r="2.6" fill="#fff" opacity="0.2"/><circle cx="367" cy="11" r="1.5" fill="#fff" opacity="0.1"/><circle cx="367" cy="33" r="1.6" fill="#fff" opacity="0.1"/><circle cx="367" cy="55" r="1.6" fill="#fff" opacity="0.1"/><circle cx="367" cy="76" r="1.7" fill="#fff" opacity="0.1"/><circle cx="367" cy="98" r="1.7" fill="#fff" opacity="0.1"/><circle cx="367" cy="120" r="1.8" fill="#fff" opacity="0.1"/><circle cx="367" cy="142" r="1.8" fill="#fff" opacity="0.1"/><circle cx="367" cy="164" r="1.9" fill="#fff" opacity="0.1"/><circle cx="367" cy="185" r="1.9" fill="#fff" opacity="0.1"/><circle cx="367" cy="207" r="2" fill="#fff" opacity="0.1"/><circle cx="367" cy="229" r="2.1" fill="#fff" opacity="0.1"/><circle cx="367" cy="251" r="2.1" fill="#fff" opacity="0.1"/><circle cx="367" cy="273" r="2.2" fill="#fff" opacity="0.1"/><circle cx="367" cy="295" r="2.2" fill="#fff" opacity="0.1"/><circle cx="367" cy="316" r="2.3" fill="#fff" opacity="0.1"/><circle cx="367" cy="338" r="2.3" fill="#fff" opacity="0.2"/><circle cx="367" cy="360" r="2.4" fill="#fff" opacity="0.2"/><circle cx="367" cy="382" r="2.4" fill="#fff" opacity="0.2"/><circle cx="367" cy="404" r="2.5" fill="#fff" opacity="0.2"/><circle cx="367" cy="425" r="2.5" fill="#fff" opacity="0.2"/><circle cx="367" cy="447" r="2.6" fill="#fff" opacity="0.2"/><circle cx="367" cy="469" r="2.7" fill="#fff" opacity="0.2"/><circle cx="389" cy="11" r="1.6" fill="#fff" opacity="0.1"/><circle cx="389" cy="33" r="1.6" fill="#fff" opacity="0.1"/><circle cx="389" cy="55" r="1.7" fill="#fff" opacity="0.1"/><circle cx="389" cy="76" r="1.7" fill="#fff" opacity="0.1"/><circle cx="389" cy="98" r="1.8" fill="#fff" opacity="0.1"/><circle cx="389" cy="120" r="1.8" fill="#fff" opacity="0.1"/><circle cx="389" cy="142" r="1.9" fill="#fff" opacity="0.1"/><circle cx="389" cy="164" r="1.9" fill="#fff" opacity="0.1"/><circle cx="389" cy="185" r="2" fill="#fff" opacity="0.1"/><circle cx="389" cy="207" r="2" fill="#fff" opacity="0.1"/><circle cx="389" cy="229" r="2.1" fill="#fff" opacity="0.1"/><circle cx="389" cy="251" r="2.2" fill="#fff" opacity="0.1"/><circle cx="389" cy="273" r="2.2" fill="#fff" opacity="0.1"/><circle cx="389" cy="295" r="2.3" fill="#fff" opacity="0.1"/><circle cx="389" cy="316" r="2.3" fill="#fff" opacity="0.2"/><circle cx="389" cy="338" r="2.4" fill="#28F100" opacity="0.4"/><circle cx="389" cy="360" r="2.4" fill="#fff" opacity="0.2"/><circle cx="389" cy="382" r="2.5" fill="#fff" opacity="0.2"/><circle cx="389" cy="404" r="2.5" fill="#fff" opacity="0.2"/><circle cx="389" cy="425" r="2.6" fill="#fff" opacity="0.2"/><circle cx="389" cy="447" r="2.6" fill="#fff" opacity="0.2"/><circle cx="389" cy="469" r="2.7" fill="#fff" opacity="0.2"/><circle cx="411" cy="11" r="1.6" fill="#fff" opacity="0.1"/><circle cx="411" cy="33" r="1.7" fill="#fff" opacity="0.1"/><circle cx="411" cy="55" r="1.7" fill="#fff" opacity="0.1"/><circle cx="411" cy="76" r="1.8" fill="#fff" opacity="0.1"/><circle cx="411" cy="98" r="1.8" fill="#fff" opacity="0.1"/><circle cx="411" cy="120" r="1.9" fill="#fff" opacity="0.1"/><circle cx="411" cy="142" r="1.9" fill="#fff" opacity="0.1"/><circle cx="411" cy="164" r="2" fill="#fff" opacity="0.1"/><circle cx="411" cy="185" r="2" fill="#fff" opacity="0.1"/><circle cx="411" cy="207" r="2.1" fill="#fff" opacity="0.1"/><circle cx="411" cy="229" r="2.1" fill="#fff" opacity="0.1"/><circle cx="411" cy="251" r="2.2" fill="#fff" opacity="0.1"/><circle cx="411" cy="273" r="2.3" fill="#fff" opacity="0.1"/><circle cx="411" cy="295" r="2.3" fill="#fff" opacity="0.2"/><circle cx="411" cy="316" r="2.4" fill="#fff" opacity="0.2"/><circle cx="411" cy="338" r="2.4" fill="#fff" opacity="0.2"/><circle cx="411" cy="360" r="2.5" fill="#fff" opacity="0.2"/><circle cx="411" cy="382" r="2.5" fill="#fff" opacity="0.2"/><circle cx="411" cy="404" r="2.6" fill="#fff" opacity="0.2"/><circle cx="411" cy="425" r="2.6" fill="#fff" opacity="0.2"/><circle cx="411" cy="447" r="2.7" fill="#fff" opacity="0.2"/><circle cx="411" cy="469" r="2.7" fill="#fff" opacity="0.2"/><circle cx="433" cy="11" r="1.6" fill="#fff" opacity="0.1"/><circle cx="433" cy="33" r="1.7" fill="#fff" opacity="0.1"/><circle cx="433" cy="55" r="1.8" fill="#fff" opacity="0.1"/><circle cx="433" cy="76" r="1.8" fill="#fff" opacity="0.1"/><circle cx="433" cy="98" r="1.9" fill="#fff" opacity="0.1"/><circle cx="433" cy="120" r="1.9" fill="#fff" opacity="0.1"/><circle cx="433" cy="142" r="2" fill="#fff" opacity="0.1"/><circle cx="433" cy="164" r="2" fill="#fff" opacity="0.1"/><circle cx="433" cy="185" r="2.1" fill="#fff" opacity="0.1"/><circle cx="433" cy="207" r="2.1" fill="#fff" opacity="0.1"/><circle cx="433" cy="229" r="2.2" fill="#fff" opacity="0.1"/><circle cx="433" cy="251" r="2.2" fill="#fff" opacity="0.1"/><circle cx="433" cy="273" r="2.3" fill="#fff" opacity="0.1"/><circle cx="433" cy="295" r="2.4" fill="#fff" opacity="0.2"/><circle cx="433" cy="316" r="2.4" fill="#fff" opacity="0.2"/><circle cx="433" cy="338" r="2.5" fill="#fff" opacity="0.2"/><circle cx="433" cy="360" r="2.5" fill="#fff" opacity="0.2"/><circle cx="433" cy="382" r="2.6" fill="#fff" opacity="0.2"/><circle cx="433" cy="404" r="2.6" fill="#fff" opacity="0.2"/><circle cx="433" cy="425" r="2.7" fill="#fff" opacity="0.2"/><circle cx="433" cy="447" r="2.7" fill="#fff" opacity="0.2"/><circle cx="433" cy="469" r="2.8" fill="#fff" opacity="0.2"/><circle cx="456" cy="11" r="1.7" fill="#fff" opacity="0.1"/><circle cx="456" cy="33" r="1.7" fill="#fff" opacity="0.1"/><circle cx="456" cy="55" r="1.8" fill="#fff" opacity="0.1"/><circle cx="456" cy="76" r="1.9" fill="#fff" opacity="0.1"/><circle cx="456" cy="98" r="1.9" fill="#fff" opacity="0.1"/><circle cx="456" cy="120" r="2" fill="#fff" opacity="0.1"/><circle cx="456" cy="142" r="2" fill="#fff" opacity="0.1"/><circle cx="456" cy="164" r="2.1" fill="#fff" opacity="0.1"/><circle cx="456" cy="185" r="2.1" fill="#28F100" opacity="0.4"/><circle cx="456" cy="207" r="2.2" fill="#fff" opacity="0.1"/><circle cx="456" cy="229" r="2.2" fill="#fff" opacity="0.1"/><circle cx="456" cy="251" r="2.3" fill="#fff" opacity="0.1"/><circle cx="456" cy="273" r="2.3" fill="#fff" opacity="0.2"/><circle cx="456" cy="295" r="2.4" fill="#fff" opacity="0.2"/><circle cx="456" cy="316" r="2.5" fill="#fff" opacity="0.2"/><circle cx="456" cy="338" r="2.5" fill="#fff" opacity="0.2"/><circle cx="456" cy="360" r="2.6" fill="#fff" opacity="0.2"/><circle cx="456" cy="382" r="2.6" fill="#fff" opacity="0.2"/><circle cx="456" cy="404" r="2.7" fill="#fff" opacity="0.2"/><circle cx="456" cy="425" r="2.7" fill="#fff" opacity="0.2"/><circle cx="456" cy="447" r="2.8" fill="#fff" opacity="0.2"/><circle cx="456" cy="469" r="2.8" fill="#fff" opacity="0.2"/><circle cx="478" cy="11" r="1.7" fill="#fff" opacity="0.1"/><circle cx="478" cy="33" r="1.8" fill="#fff" opacity="0.1"/><circle cx="478" cy="55" r="1.8" fill="#fff" opacity="0.1"/><circle cx="478" cy="76" r="1.9" fill="#fff" opacity="0.1"/><circle cx="478" cy="98" r="2" fill="#fff" opacity="0.1"/><circle cx="478" cy="120" r="2" fill="#fff" opacity="0.1"/><circle cx="478" cy="142" r="2.1" fill="#fff" opacity="0.1"/><circle cx="478" cy="164" r="2.1" fill="#fff" opacity="0.1"/><circle cx="478" cy="185" r="2.2" fill="#fff" opacity="0.1"/><circle cx="478" cy="207" r="2.2" fill="#fff" opacity="0.1"/><circle cx="478" cy="229" r="2.3" fill="#fff" opacity="0.1"/><circle cx="478" cy="251" r="2.3" fill="#fff" opacity="0.2"/><circle cx="478" cy="273" r="2.4" fill="#fff" opacity="0.2"/><circle cx="478" cy="295" r="2.4" fill="#fff" opacity="0.2"/><circle cx="478" cy="316" r="2.5" fill="#fff" opacity="0.2"/><circle cx="478" cy="338" r="2.6" fill="#fff" opacity="0.2"/><circle cx="478" cy="360" r="2.6" fill="#fff" opacity="0.2"/><circle cx="478" cy="382" r="2.7" fill="#fff" opacity="0.2"/><circle cx="478" cy="404" r="2.7" fill="#fff" opacity="0.2"/><circle cx="478" cy="425" r="2.8" fill="#fff" opacity="0.2"/><circle cx="478" cy="447" r="2.8" fill="#fff" opacity="0.2"/><circle cx="478" cy="469" r="2.9" fill="#fff" opacity="0.2"/><circle cx="500" cy="11" r="1.8" fill="#fff" opacity="0.1"/><circle cx="500" cy="33" r="1.8" fill="#fff" opacity="0.1"/><circle cx="500" cy="55" r="1.9" fill="#fff" opacity="0.1"/><circle cx="500" cy="76" r="1.9" fill="#fff" opacity="0.1"/><circle cx="500" cy="98" r="2" fill="#fff" opacity="0.1"/><circle cx="500" cy="120" r="2.1" fill="#fff" opacity="0.1"/><circle cx="500" cy="142" r="2.1" fill="#fff" opacity="0.1"/><circle cx="500" cy="164" r="2.2" fill="#fff" opacity="0.1"/><circle cx="500" cy="185" r="2.2" fill="#fff" opacity="0.1"/><circle cx="500" cy="207" r="2.3" fill="#fff" opacity="0.1"/><circle cx="500" cy="229" r="2.3" fill="#fff" opacity="0.2"/><circle cx="500" cy="251" r="2.4" fill="#fff" opacity="0.2"/><circle cx="500" cy="273" r="2.4" fill="#fff" opacity="0.2"/><circle cx="500" cy="295" r="2.5" fill="#fff" opacity="0.2"/><circle cx="500" cy="316" r="2.5" fill="#fff" opacity="0.2"/><circle cx="500" cy="338" r="2.6" fill="#fff" opacity="0.2"/><circle cx="500" cy="360" r="2.7" fill="#fff" opacity="0.2"/><circle cx="500" cy="382" r="2.7" fill="#28F100" opacity="0.4"/><circle cx="500" cy="404" r="2.8" fill="#fff" opacity="0.2"/><circle cx="500" cy="425" r="2.8" fill="#fff" opacity="0.2"/><circle cx="500" cy="447" r="2.9" fill="#fff" opacity="0.2"/><circle cx="500" cy="469" r="2.9" fill="#fff" opacity="0.2"/><circle cx="522" cy="11" r="1.8" fill="#fff" opacity="0.1"/><circle cx="522" cy="33" r="1.9" fill="#28F100" opacity="0.4"/><circle cx="522" cy="55" r="1.9" fill="#fff" opacity="0.1"/><circle cx="522" cy="76" r="2" fill="#fff" opacity="0.1"/><circle cx="522" cy="98" r="2" fill="#fff" opacity="0.1"/><circle cx="522" cy="120" r="2.1" fill="#fff" opacity="0.1"/><circle cx="522" cy="142" r="2.1" fill="#fff" opacity="0.1"/><circle cx="522" cy="164" r="2.2" fill="#fff" opacity="0.1"/><circle cx="522" cy="185" r="2.3" fill="#fff" opacity="0.1"/><circle cx="522" cy="207" r="2.3" fill="#fff" opacity="0.2"/><circle cx="522" cy="229" r="2.4" fill="#fff" opacity="0.2"/><circle cx="522" cy="251" r="2.4" fill="#fff" opacity="0.2"/><circle cx="522" cy="273" r="2.5" fill="#fff" opacity="0.2"/><circle cx="522" cy="295" r="2.5" fill="#fff" opacity="0.2"/><circle cx="522" cy="316" r="2.6" fill="#fff" opacity="0.2"/><circle cx="522" cy="338" r="2.6" fill="#fff" opacity="0.2"/><circle cx="522" cy="360" r="2.7" fill="#fff" opacity="0.2"/><circle cx="522" cy="382" r="2.7" fill="#fff" opacity="0.2"/><circle cx="522" cy="404" r="2.8" fill="#fff" opacity="0.2"/><circle cx="522" cy="425" r="2.9" fill="#fff" opacity="0.2"/><circle cx="522" cy="447" r="2.9" fill="#fff" opacity="0.2"/><circle cx="522" cy="469" r="3" fill="#fff" opacity="0.2"/><circle cx="544" cy="11" r="1.9" fill="#fff" opacity="0.1"/><circle cx="544" cy="33" r="1.9" fill="#fff" opacity="0.1"/><circle cx="544" cy="55" r="2" fill="#fff" opacity="0.1"/><circle cx="544" cy="76" r="2" fill="#fff" opacity="0.1"/><circle cx="544" cy="98" r="2.1" fill="#fff" opacity="0.1"/><circle cx="544" cy="120" r="2.1" fill="#fff" opacity="0.1"/><circle cx="544" cy="142" r="2.2" fill="#fff" opacity="0.1"/><circle cx="544" cy="164" r="2.2" fill="#fff" opacity="0.1"/><circle cx="544" cy="185" r="2.3" fill="#fff" opacity="0.2"/><circle cx="544" cy="207" r="2.4" fill="#fff" opacity="0.2"/><circle cx="544" cy="229" r="2.4" fill="#fff" opacity="0.2"/><circle cx="544" cy="251" r="2.5" fill="#fff" opacity="0.2"/><circle cx="544" cy="273" r="2.5" fill="#fff" opacity="0.2"/><circle cx="544" cy="295" r="2.6" fill="#fff" opacity="0.2"/><circle cx="544" cy="316" r="2.6" fill="#fff" opacity="0.2"/><circle cx="544" cy="338" r="2.7" fill="#fff" opacity="0.2"/><circle cx="544" cy="360" r="2.7" fill="#fff" opacity="0.2"/><circle cx="544" cy="382" r="2.8" fill="#fff" opacity="0.2"/><circle cx="544" cy="404" r="2.8" fill="#fff" opacity="0.2"/><circle cx="544" cy="425" r="2.9" fill="#fff" opacity="0.2"/><circle cx="544" cy="447" r="3" fill="#fff" opacity="0.2"/><circle cx="544" cy="469" r="3" fill="#fff" opacity="0.2"/><circle cx="567" cy="11" r="1.9" fill="#fff" opacity="0.1"/><circle cx="567" cy="33" r="2" fill="#fff" opacity="0.1"/><circle cx="567" cy="55" r="2" fill="#fff" opacity="0.1"/><circle cx="567" cy="76" r="2.1" fill="#fff" opacity="0.1"/><circle cx="567" cy="98" r="2.1" fill="#fff" opacity="0.1"/><circle cx="567" cy="120" r="2.2" fill="#fff" opacity="0.1"/><circle cx="567" cy="142" r="2.2" fill="#fff" opacity="0.1"/><circle cx="567" cy="164" r="2.3" fill="#fff" opacity="0.1"/><circle cx="567" cy="185" r="2.3" fill="#fff" opacity="0.2"/><circle cx="567" cy="207" r="2.4" fill="#fff" opacity="0.2"/><circle cx="567" cy="229" r="2.5" fill="#28F100" opacity="0.4"/><circle cx="567" cy="251" r="2.5" fill="#fff" opacity="0.2"/><circle cx="567" cy="273" r="2.6" fill="#fff" opacity="0.2"/><circle cx="567" cy="295" r="2.6" fill="#fff" opacity="0.2"/><circle cx="567" cy="316" r="2.7" fill="#fff" opacity="0.2"/><circle cx="567" cy="338" r="2.7" fill="#fff" opacity="0.2"/><circle cx="567" cy="360" r="2.8" fill="#fff" opacity="0.2"/><circle cx="567" cy="382" r="2.8" fill="#fff" opacity="0.2"/><circle cx="567" cy="404" r="2.9" fill="#fff" opacity="0.2"/><circle cx="567" cy="425" r="2.9" fill="#fff" opacity="0.2"/><circle cx="567" cy="447" r="3" fill="#fff" opacity="0.2"/><circle cx="567" cy="469" r="3.1" fill="#fff" opacity="0.2"/><circle cx="589" cy="11" r="2" fill="#fff" opacity="0.1"/><circle cx="589" cy="33" r="2" fill="#fff" opacity="0.1"/><circle cx="589" cy="55" r="2.1" fill="#fff" opacity="0.1"/><circle cx="589" cy="76" r="2.1" fill="#fff" opacity="0.1"/><circle cx="589" cy="98" r="2.2" fill="#fff" opacity="0.1"/><circle cx="589" cy="120" r="2.2" fill="#fff" opacity="0.1"/><circle cx="589" cy="142" r="2.3" fill="#fff" opacity="0.1"/><circle cx="589" cy="164" r="2.3" fill="#fff" opacity="0.2"/><circle cx="589" cy="185" r="2.4" fill="#fff" opacity="0.2"/><circle cx="589" cy="207" r="2.4" fill="#fff" opacity="0.2"/><circle cx="589" cy="229" r="2.5" fill="#fff" opacity="0.2"/><circle cx="589" cy="251" r="2.6" fill="#fff" opacity="0.2"/><circle cx="589" cy="273" r="2.6" fill="#fff" opacity="0.2"/><circle cx="589" cy="295" r="2.7" fill="#fff" opacity="0.2"/><circle cx="589" cy="316" r="2.7" fill="#fff" opacity="0.2"/><circle cx="589" cy="338" r="2.8" fill="#fff" opacity="0.2"/><circle cx="589" cy="360" r="2.8" fill="#fff" opacity="0.2"/><circle cx="589" cy="382" r="2.9" fill="#fff" opacity="0.2"/><circle cx="589" cy="404" r="2.9" fill="#fff" opacity="0.2"/><circle cx="589" cy="425" r="3" fill="#fff" opacity="0.2"/><circle cx="589" cy="447" r="3" fill="#fff" opacity="0.2"/><circle cx="589" cy="469" r="3.1" fill="#fff" opacity="0.2"/></svg>