<svg xmlns="http://www.w3.org/2000/svg" width="600" height="480" viewBox="0 0 600 480" preserveAspectRatio="xMidYMid slice"><rect width="600" height="480" fill="#0a0a0f"/><path d="M0 86 L0 86 L8 87 L16 88 L24 89 L32 89 L40 90 L48 90 L56 89 L64 89 L72 87 L80 86 L88 84 L96 82 L104 80 L112 78 L120 76 L128 75 L136 75 L144 75 L152 76 L160 78 L168 80 L176 83 L184 86 L192 90 L200 93 L208 97 L216 99 L224 102 L232 103 L240 103 L248 103 L256 101 L264 99 L272 96 L280 92 L288 88 L296 84 L304 80 L312 76 L320 73 L328 71 L336 69 L344 69 L352 69 L360 71 L368 73 L376 76 L384 80 L392 84 L400 87 L408 91 L416 94 L424 96 L432 98 L440 99 L448 99 L456 99 L464 97 L472 96 L480 93 L488 91 L496 89 L504 87 L512 85 L520 83 L528 82 L536 82 L544 82 L552 82 L560 83 L568 84 L576 84 L584 85 L592 86 L600 86" fill="none" stroke="#fff" stroke-width="1" opacity="0.1"/><path d="M0 144 L0 144 L8 145 L16 146 L24 147 L32 147 L40 147 L48 146 L56 144 L64 142 L72 140 L80 137 L88 134 L96 132 L104 130 L112 129 L120 128 L128 129 L136 130 L144 133 L152 137 L160 141 L168 146 L176 151 L184 156 L192 161 L200 165 L208 168 L216 169 L224 169 L232 168 L240 165 L248 161 L256 156 L264 150 L272 144 L280 137 L288 131 L296 126 L304 121 L312 118 L320 117 L328 117 L336 118 L344 121 L352 125 L360 131 L368 136 L376 142 L384 148 L392 154 L400 158 L408 162 L416 164 L424 166 L432 165 L440 164 L448 162 L456 158 L464 155 L472 150 L480 146 L488 143 L496 139 L504 137 L512 135 L520 134 L528 134 L536 135 L544 136 L552 138 L560 139 L568 141 L576 142 L584 143 L592 144 L600 144" fill="none" stroke="#fff" stroke-width="1" opacity="0.1"/><path d="M0 202 L0 202 L8 202 L16 202 L24 201 L32 200 L40 198 L48 195 L56 192 L64 190 L72 188 L80 187 L88 186 L96 187 L104 189 L112 192 L120 197 L128 202 L136 207 L144 213 L152 219 L160 224 L168 228 L176 231 L184 232 L192 231 L200 229 L208 225 L216 219 L224 212 L232 204 L240 196 L248 188 L256 181 L264 174 L272 169 L280 166 L288 165 L296 166 L304 169 L312 174 L320 180 L328 187 L336 196 L344 204 L352 212 L360 220 L368 226 L376 230 L384 233 L392 234 L400 233 L408 230 L416 226 L424 221 L432 215 L440 208 L448 202 L456 196 L464 191 L472 187 L480 184 L488 183 L496 183 L504 184 L512 186 L520 189 L528 192 L536 195 L544 198 L552 201 L560 203 L568 204 L576 204 L584 204 L592 203 L600 202" fill="none" stroke="#28F100" stroke-width="1.6" opacity="0.3"/><path d="M0 259 L0 259 L8 258 L16 257 L24 255 L32 252 L40 250 L48 248 L56 248 L64 248 L72 249 L80 251 L88 255 L96 259 L104 265 L112 270 L120 276 L128 281 L136 286 L144 289 L152 290 L160 290 L168 288 L176 284 L184 278 L192 271 L200 262 L208 253 L216 244 L224 236 L232 228 L240 222 L248 218 L256 217 L264 217 L272 220 L280 226 L288 233 L296 242 L304 252 L312 262 L320 272 L328 282 L336 289 L344 295 L352 299 L360 301 L368 300 L376 297 L384 292 L392 285 L400 277 L408 268 L416 260 L424 251 L432 244 L440 238 L448 234 L456 232 L464 231 L472 232 L480 235 L488 238 L496 243 L504 248 L512 253 L520 258 L528 261 L536 264 L544 266 L552 267 L560 267 L568 266 L576 265 L584 263 L592 261 L600 259" fill="none" stroke="#fff" stroke-width="1" opacity="0.1"/><path d="M0 317 L0 317 L8 315 L16 314 L24 311 L32 309 L40 308 L48 307 L56 306 L64 307 L72 309 L80 313 L88 317 L96 322 L104 327 L112 333 L120 338 L128 342 L136 346 L144 347 L152 347 L160 345 L168 341 L176 336 L184 328 L192 320 L200 311 L208 302 L216 293 L224 286 L232 280 L240 276 L248 274 L256 275 L264 278 L272 283 L280 290 L288 299 L296 309 L304 320 L312 330 L320 339 L328 348 L336 354 L344 358 L352 360 L360 359 L368 356 L376 350 L384 343 L392 335 L400 326 L408 317 L416 309 L424 301 L432 295 L440 290 L448 288 L456 287 L464 288 L472 290 L480 294 L488 299 L496 304 L504 310 L512 315 L520 319 L528 323 L536 325 L544 326 L552 327 L560 326 L568 324 L576 322 L584 320 L592 318 L600 317" fill="none" stroke="#fff" stroke-width="1" opacity="0.1"/><path d="M0 374 L0 374 L8 372 L16 370 L24 369 L32 369 L40 370 L48 372 L56 376 L64 380 L72 385 L80 390 L88 395 L96 399 L104 403 L112 404 L120 404 L128 402 L136 398 L144 392 L152 384 L160 375 L168 365 L176 355 L184 346 L192 337 L200 331 L208 327 L216 325 L224 326 L232 331 L240 337 L248 346 L256 357 L264 370 L272 382 L280 395 L288 406 L296 415 L304 423 L312 427 L320 429 L328 427 L336 423 L344 415 L352 406 L360 395 L368 383 L376 371 L384 360 L392 350 L400 342 L408 336 L416 332 L424 331 L432 333 L440 337 L448 342 L456 350 L464 358 L472 366 L480 374 L488 381 L496 387 L504 391 L512 394 L520 395 L528 394 L536 392 L544 390 L552 386 L560 383 L568 379 L576 377 L584 375 L592 374 L600 374" fill="none" stroke="#fff" stroke-width="1" opacity="0.1"/></svg>