<svg xmlns="http://www.w3.org/2000/svg" width="600" height="480" viewBox="0 0 600 480" preserveAspectRatio="xMidYMid slice"><rect width="600" height="480" fill="#0a0a0f"/><rect x="2" y="246" width="4" height="8" rx="2" fill="#fff" opacity="0.12"/><rect x="10" y="242" width="4" height="15" rx="2" fill="#fff" opacity="0.12"/><rect x="18" y="238" width="4" height="24" rx="2" fill="#fff" opacity="0.12"/><rect x="26" y="237" width="4" height="26" rx="2" fill="#28F100" opacity="0.4"/><rect x="34" y="230" width="4" height="38" rx="2" fill="#fff" opacity="0.12"/><rect x="42" y="238" width="4" height="23" rx="2" fill="#fff" opacity="0.12"/><rect x="50" y="236" width="4" height="27" rx="2" fill="#fff" opacity="0.12"/><rect x="58" y="246" width="4" height="8" rx="2" fill="#fff" opacity="0.12"/><rect x="66" y="224" width="4" height="51" rx="2" fill="#fff" opacity="0.12"/><rect x="74" y="218" width="4" height="63" rx="2" fill="#28F100" opacity="0.4"/><rect x="82" y="239" width="4" height="22" rx="2" fill="#fff" opacity="0.12"/><rect x="90" y="241" width="4" height="17" rx="2" fill="#fff" opacity="0.12"/><rect x="98" y="245" width="4" height="10" rx="2" fill="#fff" opacity="0.12"/><rect x="106" y="223" width="4" height="53" rx="2" fill="#fff" opacity="0.12"/><rect x="114" y="242" width="4" height="15" rx="2" fill="#fff" opacity="0.12"/><rect x="122" y="244" width="4" height="11" rx="2" fill="#28F100" opacity="0.4"/><rect x="130" y="245" width="4" height="9" rx="2" fill="#fff" opacity="0.12"/><rect x="138" y="226" width="4" height="47" rx="2" fill="#fff" opacity="0.12"/><rect x="146" y="245" width="4" height="10" rx="2" fill="#fff" opacity="0.12"/><rect x="154" y="229" width="4" height="42" rx="2" fill="#fff" opacity="0.12"/><rect x="162" y="170" width="4" height="158" rx="2" fill="#fff" opacity="0.12"/><rect x="170" y="198" width="4" height="102" rx="2" fill="#28F100" opacity="0.4"/><rect x="178" y="212" width="4" height="76" rx="2" fill="#fff" opacity="0.12"/><rect x="186" y="164" width="4" height="171" rx="2" fill="#fff" opacity="0.12"/><rect x="194" y="189" width="4" height="122" rx="2" fill="#fff" opacity="0.12"/><rect x="202" y="167" width="4" height="165" rx="2" fill="#fff" opacity="0.12"/><rect x="210" y="165" width="4" height="169" rx="2" fill="#fff" opacity="0.12"/><rect x="218" y="166" width="4" height="167" rx="2" fill="#28F100" opacity="0.4"/><rect x="226" y="230" width="4" height="40" rx="2" fill="#fff" opacity="0.12"/><rect x="234" y="185" width="4" height="129" rx="2" fill="#fff" opacity="0.12"/><rect x="242" y="236" width="4" height="28" rx="2" fill="#fff" opacity="0.12"/><rect x="250" y="245" width="4" height="9" rx="2" fill="#fff" opacity="0.12"/><rect x="258" y="240" width="4" height="18" rx="2" fill="#fff" opacity="0.12"/><rect x="266" y="181" width="4" height="137" rx="2" fill="#28F100" opacity="0.4"/><rect x="274" y="208" width="4" height="84" rx="2" fill="#fff" opacity="0.12"/><rect x="282" y="218" width="4" height="63" rx="2" fill="#fff" opacity="0.12"/><rect x="290" y="244" width="4" height="12" rx="2" fill="#fff" opacity="0.12"/><rect x="298" y="223" width="4" height="54" rx="2" fill="#fff" opacity="0.12"/><rect x="306" y="213" width="4" height="72" rx="2" fill="#fff" opacity="0.12"/><rect x="314" y="245" width="4" height="8" rx="2" fill="#28F100" opacity="0.4"/><rect x="322" y="243" width="4" height="14" rx="2" fill="#fff" opacity="0.12"/><rect x="330" y="245" width="4" height="10" rx="2" fill="#fff" opacity="0.12"/><rect x="338" y="147" width="4" height="205" rx="2" fill="#fff" opacity="0.12"/><rect x="346" y="180" width="4" height="139" rx="2" fill="#fff" opacity="0.12"/><rect x="354" y="209" width="4" height="82" rx="2" fill="#fff" opacity="0.12"/><rect x="362" y="153" width="4" height="193" rx="2" fill="#28F100" opacity="0.4"/><rect x="370" y="163" width="4" height="173" rx="2" fill="#fff" opacity="0.12"/><rect x="378" y="168" width="4" height="162" rx="2" fill="#fff" opacity="0.12"/><rect x="386" y="162" width="4" height="176" rx="2" fill="#fff" opacity="0.12"/><rect x="394" y="164" width="4" height="172" rx="2" fill="#fff" opacity="0.12"/><rect x="402" y="227" width="4" height="46" rx="2" fill="#fff" opacity="0.12"/><rect x="410" y="162" width="4" height="175" rx="2" fill="#28F100" opacity="0.4"/><rect x="418" y="175" width="4" height="148" rx="2" fill="#fff" opacity="0.12"/><rect x="426" y="223" width="4" height="54" rx="2" fill="#fff" opacity="0.12"/><rect x="434" y="245" width="4" height="9" rx="2" fill="#fff" opacity="0.12"/><rect x="442" y="226" width="4" height="48" rx="2" fill="#fff" opacity="0.12"/><rect x="450" y="228" width="4" height="43" rx="2" fill="#fff" opacity="0.12"/><rect x="458" y="243" width="4" height="14" rx="2" fill="#28F100" opacity="0.4"/><rect x="466" y="224" width="4" height="51" rx="2" fill="#fff" opacity="0.12"/><rect x="474" y="228" width="4" height="44" rx="2" fill="#fff" opacity="0.12"/><rect x="482" y="237" width="4" height="26" rx="2" fill="#fff" opacity="0.12"/><rect x="490" y="235" width="4" height="29" rx="2" fill="#fff" opacity="0.12"/><rect x="498" y="238" width="4" height="24" rx="2" fill="#fff" opacity="0.12"/><rect x="506" y="207" width="4" height="86" rx="2" fill="#28F100" opacity="0.4"/><rect x="514" y="234" width="4" height="31" rx="2" fill="#fff" opacity="0.12"/><rect x="522" y="238" width="4" height="24" rx="2" fill="#fff" opacity="0.12"/><rect x="530" y="237" width="4" height="25" rx="2" fill="#fff" opacity="0.12"/><rect x="538" y="227" width="4" height="45" rx="2" fill="#fff" opacity="0.12"/><rect x="546" y="220" width="4" height="59" rx="2" fill="#fff" opacity="0.12"/><rect x="554" y="224" width="4" height="50" rx="2" fill="#28F100" opacity="0.4"/><rect x="562" y="234" width="4" height="31" rx="2" fill="#fff" opacity="0.12"/><rect x="570" y="235" width="4" height="29" rx="2" fill="#fff" opacity="0.12"/><rect x="578" y="240" width="4" height="18" rx="2" fill="#fff" opacity="0.12"/><rect x="586" y="241" width="4" height="16" rx="2" fill="#fff" opacity="0.12"/><rect x="594" y="246" width="4" height="8" rx="2" fill="#fff" opacity="0.12"/></svg>